<?xml version="1.0" encoding="iso-8859-1"?>
<!-- Generator: Adobe Illustrator 19.0.0, SVG Export Plug-In . SVG Version: 6.00 Build 0)  -->
<svg version="1.1" id="Capa_1" xmlns="http://www.w3.org/2000/svg" xmlns:xlink="http://www.w3.org/1999/xlink" x="0px" y="0px"
	 viewBox="0 0 512 512" style="enable-background:new 0 0 512 512;" xml:space="preserve">
<g>
	<g>
		<path d="M209.68,285.67c11.976-5.606,20.64-20.64,20.64-42.809c0-33.125-20.13-45.101-48.668-45.101
			c-41.28,0-51.727,26.755-51.727,42.044c0,8.409,2.038,10.956,11.212,10.956c7.389,0,10.192-3.822,10.192-9.428
			c0-10.702,5.861-24.462,29.812-24.462c19.111,0,28.539,9.173,28.539,29.812c0,24.462-11.466,30.578-29.558,30.578
			c-5.351,0-7.39,4.586-7.39,8.918c0,4.586,2.038,8.918,7.39,8.918c20.64,0,34.145,8.918,34.145,31.087v4.841
			c0,24.462-11.721,35.164-34.145,35.164c-24.716,0-33.38-14.525-33.38-25.482c0-5.351-2.294-8.409-10.957-8.409
			c-7.134,0-9.938,2.039-9.938,9.938c0,19.365,16.563,43.317,54.275,43.317c30.577,0,55.548-14.778,55.548-54.529v-4.841
			C235.67,304.016,224.714,291.785,209.68,285.67z"/>
	</g>
</g>
<g>
	<g>
		<path d="M314.659,197.761c-30.832,0-54.784,15.034-54.784,55.549v76.698c0,40.515,23.952,55.548,54.784,55.548
			c30.832,0,55.039-15.033,55.039-55.548V253.31C369.697,212.795,345.49,197.761,314.659,197.761z M348.293,330.007
			c0,24.716-12.74,36.183-33.635,36.183c-20.894,0-33.38-11.467-33.38-36.183V253.31c0-24.716,12.486-36.183,33.38-36.183
			c20.894,0,33.635,11.467,33.635,36.183V330.007z"/>
	</g>
</g>
<g>
	<g>
		<path d="M465.912,43.752c-0.595-0.144-1.197-0.269-1.804-0.38c-0.681-0.123-1.369-0.228-2.064-0.307
			c-0.677-0.078-1.357-0.142-2.046-0.177c-0.549-0.028-1.101-0.042-1.656-0.042h-17.233V28.132C441.11,12.619,428.49,0,412.978,0
			c-15.511,0-28.131,12.619-28.131,28.132v14.714h-48.391V28.132C336.457,12.619,323.837,0,308.325,0
			c-15.511,0-28.131,12.619-28.131,28.132v14.714h-48.391V28.132C231.804,12.619,219.184,0,203.673,0s-28.131,12.619-28.131,28.132
			v14.714h-48.391V28.132C127.151,12.619,114.531,0,99.019,0C83.508,0,70.888,12.619,70.888,28.132v14.714H53.655
			c-0.555,0-1.108,0.014-1.656,0.042c-9.15,0.466-17.3,4.77-22.882,11.324c-4.793,5.628-7.695,12.913-7.695,20.867v0.001v336.963
			c0,4.14,3.356,7.496,7.496,7.496s7.496-3.356,7.496-7.496V147.545h17.192v295.944c0,15.43,12.553,27.983,27.983,27.983h348.82
			c15.43,0,27.983-12.553,27.983-27.983V147.545h17.192v332.221c0,9.507-7.735,17.242-17.241,17.242H53.655
			c-9.507,0-17.241-7.735-17.241-17.242v-32.617c0-4.14-3.356-7.496-7.496-7.496s-7.496,3.356-7.496,7.496v32.617
			c0,17.774,14.46,32.234,32.234,32.234h404.687c17.773,0,32.234-14.46,32.234-32.234V75.08v-0.001
			C490.576,59.912,480.044,47.167,465.912,43.752z M399.839,28.132c0-7.245,5.894-13.14,13.139-13.14s13.14,5.894,13.14,13.14v44.42
			c0,7.244-5.894,13.139-13.14,13.139c-7.245,0-13.139-5.894-13.139-13.139V28.132z M295.186,28.132
			c0-7.245,5.894-13.14,13.139-13.14s13.139,5.894,13.139,13.14v44.42c0,7.244-5.894,13.139-13.139,13.139
			s-13.139-5.894-13.139-13.139V28.132z M190.533,28.132c0-7.245,5.894-13.14,13.139-13.14c7.245,0,13.139,5.894,13.139,13.14v44.42
			c0,7.244-5.894,13.139-13.139,13.139c-7.245,0-13.139-5.894-13.139-13.139V28.132z M99.02,14.992
			c7.245,0,13.139,5.894,13.139,13.14v44.42c0,7.244-5.894,13.139-13.139,13.139s-13.139-5.894-13.139-13.139v-44.42H85.88
			C85.88,20.887,91.774,14.992,99.02,14.992z M475.585,132.553L475.585,132.553H368.159c-4.14,0-7.496,3.356-7.496,7.496
			c0,4.14,3.356,7.496,7.496,7.496H443.4v295.944c0,7.163-5.828,12.991-12.991,12.991H81.589c-7.163,0-12.991-5.828-12.991-12.991
			V147.545h264.681c4.14,0,7.496-3.356,7.496-7.496c0-4.14-3.356-7.496-7.496-7.496H61.121c-0.007,0-0.013-0.001-0.019-0.001
			c-0.006,0-0.013,0.001-0.019,0.001H36.414V75.08c0-4.386,1.66-8.382,4.366-11.428c3.161-3.557,7.754-5.814,12.875-5.814h17.233
			v14.714c0,15.511,12.62,28.131,28.132,28.131c15.511,0,28.131-12.619,28.131-28.131V57.838h48.391v14.714
			c0,15.511,12.62,28.131,28.131,28.131s28.131-12.619,28.131-28.131V57.838h48.391v14.714c0,15.511,12.62,28.131,28.131,28.131
			c15.511,0,28.131-12.619,28.131-28.131V57.838h48.391v14.714c0,15.511,12.62,28.131,28.131,28.131
			c15.512,0,28.132-12.619,28.132-28.131V57.838h17.233c5.121,0,9.715,2.257,12.875,5.814c2.707,3.046,4.366,7.042,4.366,11.428
			V132.553z"/>
	</g>
</g>
<g>
</g>
<g>
</g>
<g>
</g>
<g>
</g>
<g>
</g>
<g>
</g>
<g>
</g>
<g>
</g>
<g>
</g>
<g>
</g>
<g>
</g>
<g>
</g>
<g>
</g>
<g>
</g>
<g>
</g>
</svg>
